<svg xmlns="http://www.w3.org/2000/svg" xml:space="preserve" style="fill-rule:evenodd;clip-rule:evenodd;stroke-linecap:round;stroke-linejoin:round;stroke-miterlimit:1.5" viewBox="0 0 364 364"><path d="M5913 2434h782v629h-782z" style="fill:none" transform="matrix(.46547 0 0 .5787 -2752.357 -1408.552)"/><path d="M7125 360c-50 0-50 0-50 50s0 50 50 50 50 0 50-50 0-50-50-50Z" style="fill:#24a5ff;stroke:#16679f;stroke-width:2px" transform="matrix(1 0 0 1 -6943.019 -358.004)"/><path d="M7125 360c-50 0-50 0-50 50s0 50 50 50 50 0 50-50 0-50-50-50Z" style="fill:#24a5ff;stroke:#16679f;stroke-width:2px" transform="matrix(1 0 0 1 -6813.02 -358.004)"/><path d="M7125 360c-50 0-50 0-50 50s0 50 50 50 50 0 50-50 0-50-50-50Z" style="fill:#24a5ff;stroke:#16679f;stroke-width:2px" transform="matrix(1 0 0 1 -6943.019 -228.004)"/><path d="M7125 360c-50 0-50 0-50 50s0 50 50 50 50 0 50-50 0-50-50-50Z" style="fill:#24a5ff;stroke:#16679f;stroke-width:2px" transform="matrix(1 0 0 1 -6812.989 -228.035)"/><path d="M7125 360c-50 0-50 0-50 50s0 50 50 50 50 0 50-50 0-50-50-50Z" style="fill:#24a5ff;stroke:#16679f;stroke-width:2px" transform="matrix(1 0 0 1 -6813.02 -98.004)"/><path d="M7125 360c-50 0-50 0-50 50s0 50 50 50 50 0 50-50 0-50-50-50Z" style="fill:#24a5ff;stroke:#16679f;stroke-width:2px" transform="matrix(1 0 0 1 -7073.018 -358.004)"/></svg>