<svg xmlns="http://www.w3.org/2000/svg" xml:space="preserve" style="fill-rule:evenodd;clip-rule:evenodd;stroke-linecap:round;stroke-linejoin:round;stroke-miterlimit:1.5" viewBox="0 0 4428 1127"><path d="M1218.86 500.579c-171.708 0-310.92 139.203-310.92 310.919v310.92h155.46v-310.92c0-85.858 69.606-155.46 155.46-155.46h155.46V500.579h-155.46Z" style="fill:#dadee1;stroke:#73828c;stroke-width:7.18px"/><path d="M1643.92 889.232h435.681a310.802 310.802 0 0 0 9.875-77.73c0-171.603-139.318-310.92-310.921-310.92-171.604 0-310.921 139.317-310.921 310.92s139.317 310.92 310.921 310.92a310.934 310.934 0 0 0 219.855-91.065l-109.929-109.929a155.451 155.451 0 0 1-109.926 45.534c-57.496 0-107.744-31.279-134.635-77.73Zm269.27-155.46c-26.892-46.452-77.14-77.73-134.635-77.73-57.496 0-107.744 31.278-134.635 77.73h269.27Z" style="fill:#dadee1;stroke:#73828c;stroke-width:6.44px"/><path d="M2182.71 811.498c0 171.716 139.212 310.92 310.921 310.92 171.708 0 310.92-139.204 310.92-310.92V500.579h-155.46v310.919c0 85.858-69.606 155.46-155.46 155.46-85.854 0-155.46-69.602-155.46-155.46V500.579H2182.71v310.919ZM3519.67 811.498c0-171.716-139.212-310.919-310.92-310.919-171.708 0-310.92 139.203-310.92 310.919v310.92h155.46v-310.92c0-85.858 69.606-155.46 155.46-155.46 85.854 0 155.46 69.602 155.46 155.46v310.92h155.46v-310.92Z" style="fill:#dadee1;stroke:#73828c;stroke-width:6.42px"/><path d="M3861.73 3.109c-155.461 0-155.461 0-155.461 155.46s0 155.46 155.461 155.46c155.46 0 155.46 0 155.46-155.46s0-155.46-155.46-155.46ZM4265.92 3.109c-155.461 0-155.461 0-155.461 155.46s0 155.46 155.461 155.46c155.46 0 155.46 0 155.46-155.46s0-155.46-155.46-155.46ZM3861.73 407.305c-155.461 0-155.461 0-155.461 155.461 0 155.46 0 155.46 155.461 155.46 155.46 0 155.46 0 155.46-155.46 0-155.461 0-155.461-155.46-155.461ZM4266.02 407.209c-155.46 0-155.46 0-155.46 155.46s0 155.46 155.46 155.46 155.46 0 155.46-155.46 0-155.46-155.46-155.46ZM4265.92 811.502c-155.461 0-155.461 0-155.461 155.46s0 155.46 155.461 155.46c155.46 0 155.46 0 155.46-155.46s0-155.46-155.46-155.46ZM3457.53 3.109c-155.461 0-155.461 0-155.461 155.46s0 155.46 155.461 155.46c155.46 0 155.46 0 155.46-155.46s0-155.46-155.46-155.46Z" style="fill:#24a5ff;stroke:#16679f;stroke-width:6.22px"/></svg>