<svg xmlns="http://www.w3.org/2000/svg" xml:space="preserve" style="fill-rule:evenodd;clip-rule:evenodd;stroke-linecap:round;stroke-linejoin:round;stroke-miterlimit:1.5" viewBox="0 0 3526 1132"><path d="M0 0h3525.83v1131.75H0z" style="fill:none"/><path d="M317.086 503.688c-171.708 0-310.92 139.204-310.92 310.919v310.92h155.46v-310.92c0-85.857 69.606-155.459 155.46-155.459h155.46v-155.46h-155.46Z" style="fill:#dadee1;stroke:#73828c;stroke-width:7.18px"/><path d="M742.155 892.341h435.68a310.802 310.802 0 0 0 9.875-77.73c0-171.603-139.317-310.92-310.921-310.92-171.603 0-310.92 139.317-310.92 310.92s139.317 310.92 310.92 310.92a310.93 310.93 0 0 0 219.856-91.065L986.716 924.537a155.452 155.452 0 0 1-109.927 45.534c-57.495 0-107.743-31.279-134.634-77.73Zm269.269-155.46c-26.891-46.452-77.139-77.73-134.635-77.73-57.495 0-107.743 31.278-134.634 77.73h269.269Z" style="fill:#dadee1;stroke:#73828c;stroke-width:6.44px"/><path d="M1280.94 814.607c0 171.716 139.212 310.92 310.92 310.92 171.708 0 310.92-139.204 310.92-310.92V503.688h-155.46v310.919c0 85.858-69.606 155.46-155.46 155.46-85.854 0-155.46-69.602-155.46-155.46V503.688h-155.46v310.919ZM2617.9 814.607c0-171.715-139.212-310.919-310.92-310.919-171.708 0-310.92 139.204-310.92 310.919v310.92h155.46v-310.92c0-85.857 69.606-155.459 155.46-155.459 85.854 0 155.46 69.602 155.46 155.459v310.92h155.46v-310.92Z" style="fill:#dadee1;stroke:#73828c;stroke-width:6.42px"/><path d="M2959.96 6.218c-155.46 0-155.46 0-155.46 155.461 0 155.46 0 155.46 155.46 155.46 155.461 0 155.461 0 155.461-155.46 0-155.461 0-155.461-155.461-155.461ZM3364.16 6.218c-155.46 0-155.46 0-155.46 155.461 0 155.46 0 155.46 155.46 155.46 155.461 0 155.461 0 155.461-155.46 0-155.461 0-155.461-155.461-155.461ZM2959.96 410.415c-155.46 0-155.46 0-155.46 155.46s0 155.46 155.46 155.46c155.461 0 155.461 0 155.461-155.46s0-155.46-155.461-155.46ZM3364.25 410.318c-155.461 0-155.461 0-155.461 155.46s0 155.46 155.461 155.46c155.46 0 155.46 0 155.46-155.46s0-155.46-155.46-155.46ZM3364.16 814.611c-155.46 0-155.46 0-155.46 155.46s0 155.46 155.46 155.46c155.461 0 155.461 0 155.461-155.46s0-155.46-155.461-155.46ZM2555.76 6.218c-155.46 0-155.46 0-155.46 155.461 0 155.46 0 155.46 155.46 155.46 155.461 0 155.461 0 155.461-155.46 0-155.461 0-155.461-155.461-155.461Z" style="fill:#24a5ff;stroke:#16679f;stroke-width:6.22px"/></svg>