<svg xmlns="http://www.w3.org/2000/svg"
  style="fill-rule:evenodd;clip-rule:evenodd;stroke-linecap:round;stroke-linejoin:round;stroke-miterlimit:1.5"
  viewBox="0 0 364 364">
  <path d="M7125 360c-50 0-50 0-50 50s0 50 50 50 50 0 50-50 0-50-50-50Z"
    style="fill: rgb(36, 165, 255); stroke: rgb(22, 103, 159); stroke-width: 2px; transform-box: fill-box; transform-origin: 50% 50%;"
    transform="matrix(1, 0, 0, 1, -6943.019, -358.004)">
  </path>
  <path d="M7125 360c-50 0-50 0-50 50s0 50 50 50 50 0 50-50 0-50-50-50Z"
    style="fill: rgb(36, 165, 255); stroke: rgb(22, 103, 159); stroke-width: 2px; transform-box: fill-box; transform-origin: 50% 50%;"
    transform="matrix(1, 0, 0, 1, -6813.02, -358.004)">
  </path>
  <path d="M7125 360c-50 0-50 0-50 50s0 50 50 50 50 0 50-50 0-50-50-50Z"
    style="fill: rgb(36, 165, 255); stroke: rgb(22, 103, 159); stroke-width: 2px; transform-box: fill-box; transform-origin: 50% 50%;"
    transform="matrix(1, 0, 0, 1, -6943.019, -228.004)">
  </path>
  <path d="M7125 360c-50 0-50 0-50 50s0 50 50 50 50 0 50-50 0-50-50-50Z"
    style="fill: rgb(36, 165, 255); stroke: rgb(22, 103, 159); stroke-width: 2px; transform-box: fill-box; transform-origin: 50% 50%;"
    transform="matrix(1, 0, 0, 1, -6812.989, -228.035)">
  </path>
  <path d="M7125 360c-50 0-50 0-50 50s0 50 50 50 50 0 50-50 0-50-50-50Z"
    style="fill: rgb(36, 165, 255); stroke: rgb(22, 103, 159); stroke-width: 2px; transform-box: fill-box; transform-origin: 50% 50%;"
    transform="matrix(1, 0, 0, 1, -6813.02, -98.004)">
  </path>
  <path d="M7125 360c-50 0-50 0-50 50s0 50 50 50 50 0 50-50 0-50-50-50Z"
    style="fill: rgb(36, 165, 255); stroke: rgb(22, 103, 159); stroke-width: 2px; transform-box: fill-box; transform-origin: 50% 50%;"
    transform="matrix(1, 0, 0, 1, -7073.018, -358.004)">
  </path>
</svg>
